<svg width="18" height="14" viewBox="0 0 18 14" fill="none" xmlns="http://www.w3.org/2000/svg">
<path d="M17.4684 1.71327C16.8322 1.99468 16.1575 2.1795 15.4667 2.26161C16.1948 1.82613 16.7398 1.14078 17 0.333272C16.3167 0.739939 15.5675 1.02494 14.7867 1.17911C14.2622 0.617921 13.567 0.245741 12.8092 0.120426C12.0513 -0.00488923 11.2733 0.123681 10.5961 0.48615C9.91887 0.848618 9.38037 1.42468 9.06431 2.12477C8.74825 2.82486 8.67233 3.60976 8.84838 4.35744C7.46263 4.28798 6.10699 3.92787 4.86945 3.30049C3.63191 2.67311 2.54015 1.79248 1.66504 0.715772C1.35529 1.24781 1.19251 1.85263 1.19338 2.46827C1.19338 3.6766 1.80838 4.74411 2.74338 5.36911C2.19005 5.35169 1.6489 5.20226 1.16504 4.93327V4.9766C1.16521 5.78136 1.44369 6.56129 1.95325 7.18415C2.46282 7.80702 3.17211 8.2345 3.96088 8.3941C3.44722 8.5333 2.90863 8.55382 2.38588 8.4541C2.60827 9.1468 3.04172 9.7526 3.62554 10.1867C4.20936 10.6208 4.91432 10.8614 5.64171 10.8749C4.91878 11.4427 4.09103 11.8624 3.20578 12.1101C2.32053 12.3577 1.39515 12.4285 0.482544 12.3183C2.07563 13.3428 3.93012 13.8867 5.82421 13.8849C12.235 13.8849 15.7409 8.57411 15.7409 3.96827C15.7409 3.81827 15.7367 3.66661 15.73 3.51827C16.4124 3.02508 17.0014 2.41412 17.4692 1.71411L17.4684 1.71327Z" fill="white"/>
</svg>
