<?xml version="1.0" encoding="UTF-8"?>
<!DOCTYPE svg PUBLIC "-//W3C//DTD SVG 1.1//EN" "http://www.w3.org/Graphics/SVG/1.1/DTD/svg11.dtd">
<!-- Creator: CorelDRAW 2021 (64-Bit) -->
<svg xmlns="http://www.w3.org/2000/svg" xml:space="preserve" width="0.143669in" height="0.166898in" version="1.1" style="shape-rendering:geometricPrecision; text-rendering:geometricPrecision; image-rendering:optimizeQuality; fill-rule:evenodd; clip-rule:evenodd"
viewBox="0 0 6.89 8"
 xmlns:xlink="http://www.w3.org/1999/xlink"
 xmlns:xodm="http://www.corel.com/coreldraw/odm/2003">
 <defs>
  <style type="text/css">
   <![CDATA[
    .fil0 {fill:url(#id0)}
   ]]>
  </style>
  <linearGradient id="id0" gradientUnits="userSpaceOnUse" x1="3.43" y1="-0.77" x2="3.43" y2="11.16">
   <stop offset="0" style="stop-opacity:1; stop-color:yellow"/>
   <stop offset="1" style="stop-opacity:1; stop-color:red"/>
  </linearGradient>
 </defs>
 <g id="Layer_x0020_1">
  <metadata id="CorelCorpID_0Corel-Layer"/>
  <path class="fil0" d="M-0 0.87l0.79 0 1.43 0 0.23 0c0.19,0 0.38,0.02 0.56,0.04 1.7,0.27 3,1.75 3,3.52 0,0.92 -0.35,1.76 -0.93,2.4l0.62 0.62c0.74,-0.79 1.19,-1.85 1.19,-3.01 0,-2.25 -1.7,-4.12 -3.87,-4.4 -0.18,-0.02 -0.37,-0.04 -0.56,-0.04l-0.23 0 -1.43 0 -0.79 0 0 0.87zm2.22 2.47c-0.41,0.15 -0.71,0.55 -0.71,1.02 0,0.47 0.3,0.87 0.71,1.02l0 1.07 0 0.8 -1.43 0 0 -0.8 0 -4.02 1.43 0 0.21 0c0.2,0 0.4,0.03 0.58,0.09 0.83,0.25 1.43,1.02 1.43,1.93 0,0.49 -0.18,0.94 -0.47,1.29l0.6 0.6c0.45,-0.5 0.73,-1.16 0.73,-1.89 0,-1.37 -0.99,-2.52 -2.29,-2.77 -0.17,-0.03 -0.34,-0.05 -0.52,-0.05l-0.27 0 -1.43 0 -0.79 0 0 0.8 0 4.02 0 0.8 0 0.75 0.79 0 1.43 0 0.23 0c0.19,0 0.38,-0.02 0.56,-0.04l0 -0.75 0 -0.84 0 -1c0.39,-0.16 0.67,-0.55 0.67,-1 0,-0.45 -0.28,-0.84 -0.67,-1 -0.13,-0.05 -0.27,-0.08 -0.42,-0.08 -0.13,0 -0.26,0.02 -0.37,0.07z"/>
 </g>
</svg>
